<?xml version="1.0" encoding="UTF-8" standalone="no"?><svg xmlns="http://www.w3.org/2000/svg" xmlns:xlink="http://www.w3.org/1999/xlink" contentStyleType="text/css" height="566px" preserveAspectRatio="none" style="width:618px;height:566px;background:#FFFFFF;" version="1.1" viewBox="0 0 618 566" width="618px" zoomAndPan="magnify"><defs/><g><rect height="133.6641" style="stroke:#000000;stroke-width:1.5;fill:none;" width="505.5" x="10" y="98.2969"/><rect height="133.6641" style="stroke:#000000;stroke-width:1.5;fill:none;" width="505.5" x="10" y="245.9609"/><rect height="75.3984" style="stroke:#000000;stroke-width:1.5;fill:none;" width="602.5" x="10" y="393.625"/><line style="stroke:#181818;stroke-width:0.5;fill:none;stroke-dasharray:5.0,5.0;" x1="38" x2="38" y1="81.2969" y2="486.0234"/><line style="stroke:#181818;stroke-width:0.5;fill:none;stroke-dasharray:5.0,5.0;" x1="231" x2="231" y1="81.2969" y2="486.0234"/><line style="stroke:#181818;stroke-width:0.5;fill:none;stroke-dasharray:5.0,5.0;" x1="452.5" x2="452.5" y1="81.2969" y2="486.0234"/><line style="stroke:#181818;stroke-width:0.5;fill:none;stroke-dasharray:5.0,5.0;" x1="564.5" x2="564.5" y1="81.2969" y2="486.0234"/><text fill="#000000" font-family="sans-serif" font-size="14" lengthAdjust="spacing" textLength="31" x="20" y="77.9951">user</text><ellipse cx="38.5" cy="13.5" fill="#E2E2F0" rx="8" ry="8" style="stroke:#181818;stroke-width:0.5;"/><path d="M38.5,21.5 L38.5,48.5 M25.5,29.5 L51.5,29.5 M38.5,48.5 L25.5,63.5 M38.5,48.5 L51.5,63.5 " fill="none" style="stroke:#181818;stroke-width:0.5;"/><text fill="#000000" font-family="sans-serif" font-size="14" lengthAdjust="spacing" textLength="31" x="20" y="498.0186">user</text><ellipse cx="38.5" cy="509.8203" fill="#E2E2F0" rx="8" ry="8" style="stroke:#181818;stroke-width:0.5;"/><path d="M38.5,517.8203 L38.5,544.8203 M25.5,525.8203 L51.5,525.8203 M38.5,544.8203 L25.5,559.8203 M38.5,544.8203 L51.5,559.8203 " fill="none" style="stroke:#181818;stroke-width:0.5;"/><rect fill="#E2E2F0" height="30.2969" rx="2.5" ry="2.5" style="stroke:#181818;stroke-width:0.5;" width="81" x="191" y="50"/><text fill="#000000" font-family="sans-serif" font-size="14" lengthAdjust="spacing" textLength="67" x="198" y="69.9951">bootstrap</text><rect fill="#E2E2F0" height="30.2969" rx="2.5" ry="2.5" style="stroke:#181818;stroke-width:0.5;" width="81" x="191" y="485.0234"/><text fill="#000000" font-family="sans-serif" font-size="14" lengthAdjust="spacing" textLength="67" x="198" y="505.0186">bootstrap</text><rect fill="#E2E2F0" height="30.2969" rx="2.5" ry="2.5" style="stroke:#181818;stroke-width:0.5;" width="106" x="399.5" y="50"/><text fill="#000000" font-family="sans-serif" font-size="14" lengthAdjust="spacing" textLength="92" x="406.5" y="69.9951">management</text><rect fill="#E2E2F0" height="30.2969" rx="2.5" ry="2.5" style="stroke:#181818;stroke-width:0.5;" width="106" x="399.5" y="485.0234"/><text fill="#000000" font-family="sans-serif" font-size="14" lengthAdjust="spacing" textLength="92" x="406.5" y="505.0186">management</text><rect fill="#E2E2F0" height="30.2969" rx="2.5" ry="2.5" style="stroke:#181818;stroke-width:0.5;" width="76" x="526.5" y="50"/><text fill="#000000" font-family="sans-serif" font-size="14" lengthAdjust="spacing" textLength="62" x="533.5" y="69.9951">workload</text><rect fill="#E2E2F0" height="30.2969" rx="2.5" ry="2.5" style="stroke:#181818;stroke-width:0.5;" width="76" x="526.5" y="485.0234"/><text fill="#000000" font-family="sans-serif" font-size="14" lengthAdjust="spacing" textLength="62" x="533.5" y="505.0186">workload</text><path d="M10,98.2969 L128,98.2969 L128,105.4297 L118,115.4297 L10,115.4297 L10,98.2969 " fill="#EEEEEE" style="stroke:#000000;stroke-width:1.5;"/><rect fill="none" height="133.6641" style="stroke:#000000;stroke-width:1.5;" width="505.5" x="10" y="98.2969"/><text fill="#000000" font-family="sans-serif" font-size="13" font-weight="bold" lengthAdjust="spacing" textLength="73" x="25" y="111.3638">bootstrap</text><polygon fill="#181818" points="219.5,132.5625,229.5,136.5625,219.5,140.5625,223.5,136.5625" style="stroke:#181818;stroke-width:1.0;"/><line style="stroke:#181818;stroke-width:1.0;" x1="38.5" x2="225.5" y1="136.5625" y2="136.5625"/><text fill="#000000" font-family="sans-serif" font-size="13" lengthAdjust="spacing" textLength="159" x="45.5" y="131.4966">create temporary cluster</text><polygon fill="#181818" points="219.5,161.6953,229.5,165.6953,219.5,169.6953,223.5,165.6953" style="stroke:#181818;stroke-width:1.0;"/><line style="stroke:#181818;stroke-width:1.0;" x1="38.5" x2="225.5" y1="165.6953" y2="165.6953"/><text fill="#000000" font-family="sans-serif" font-size="13" lengthAdjust="spacing" textLength="169" x="45.5" y="160.6294">initialize temporary cluster</text><polygon fill="#181818" points="219.5,190.8281,229.5,194.8281,219.5,198.8281,223.5,194.8281" style="stroke:#181818;stroke-width:1.0;"/><line style="stroke:#181818;stroke-width:1.0;" x1="38.5" x2="225.5" y1="194.8281" y2="194.8281"/><text fill="#000000" font-family="sans-serif" font-size="13" lengthAdjust="spacing" textLength="130" x="45.5" y="189.7622">apply cluster configs</text><polygon fill="#181818" points="440.5,219.9609,450.5,223.9609,440.5,227.9609,444.5,223.9609" style="stroke:#181818;stroke-width:1.0;"/><line style="stroke:#181818;stroke-width:1.0;" x1="231.5" x2="446.5" y1="223.9609" y2="223.9609"/><text fill="#000000" font-family="sans-serif" font-size="13" lengthAdjust="spacing" textLength="88" x="238.5" y="218.895">create cluster</text><path d="M10,245.9609 L92,245.9609 L92,253.0938 L82,263.0938 L10,263.0938 L10,245.9609 " fill="#EEEEEE" style="stroke:#000000;stroke-width:1.5;"/><rect fill="none" height="133.6641" style="stroke:#000000;stroke-width:1.5;" width="505.5" x="10" y="245.9609"/><text fill="#000000" font-family="sans-serif" font-size="13" font-weight="bold" lengthAdjust="spacing" textLength="37" x="25" y="259.0278">pivot</text><polygon fill="#181818" points="440.5,280.2266,450.5,284.2266,440.5,288.2266,444.5,284.2266" style="stroke:#181818;stroke-width:1.0;"/><line style="stroke:#181818;stroke-width:1.0;" x1="38.5" x2="446.5" y1="284.2266" y2="284.2266"/><text fill="#000000" font-family="sans-serif" font-size="13" lengthAdjust="spacing" textLength="98" x="45.5" y="279.1606">initialize cluster</text><polygon fill="#181818" points="219.5,309.3594,229.5,313.3594,219.5,317.3594,223.5,313.3594" style="stroke:#181818;stroke-width:1.0;"/><line style="stroke:#181818;stroke-width:1.0;" x1="38.5" x2="225.5" y1="313.3594" y2="313.3594"/><text fill="#000000" font-family="sans-serif" font-size="13" lengthAdjust="spacing" textLength="115" x="45.5" y="308.2935">disable cluster api</text><polygon fill="#181818" points="440.5,338.4922,450.5,342.4922,440.5,346.4922,444.5,342.4922" style="stroke:#181818;stroke-width:1.0;"/><line style="stroke:#181818;stroke-width:1.0;" x1="231.5" x2="446.5" y1="342.4922" y2="342.4922"/><text fill="#000000" font-family="sans-serif" font-size="13" lengthAdjust="spacing" textLength="197" x="238.5" y="337.4263">transfer any existing resources</text><polygon fill="#181818" points="219.5,367.625,229.5,371.625,219.5,375.625,223.5,371.625" style="stroke:#181818;stroke-width:1.0;"/><line style="stroke:#181818;stroke-width:1.0;" x1="38.5" x2="225.5" y1="371.625" y2="371.625"/><text fill="#000000" font-family="sans-serif" font-size="13" lengthAdjust="spacing" textLength="158" x="45.5" y="366.5591">delete temporary cluster</text><path d="M10,393.625 L123,393.625 L123,400.7578 L113,410.7578 L10,410.7578 L10,393.625 " fill="#EEEEEE" style="stroke:#000000;stroke-width:1.5;"/><rect fill="none" height="75.3984" style="stroke:#000000;stroke-width:1.5;" width="602.5" x="10" y="393.625"/><text fill="#000000" font-family="sans-serif" font-size="13" font-weight="bold" lengthAdjust="spacing" textLength="68" x="25" y="406.6919">workload</text><polygon fill="#181818" points="440.5,427.8906,450.5,431.8906,440.5,435.8906,444.5,431.8906" style="stroke:#181818;stroke-width:1.0;"/><line style="stroke:#181818;stroke-width:1.0;" x1="38.5" x2="446.5" y1="431.8906" y2="431.8906"/><text fill="#000000" font-family="sans-serif" font-size="13" lengthAdjust="spacing" textLength="130" x="45.5" y="426.8247">apply cluster configs</text><polygon fill="#181818" points="552.5,457.0234,562.5,461.0234,552.5,465.0234,556.5,461.0234" style="stroke:#181818;stroke-width:1.0;"/><line style="stroke:#181818;stroke-width:1.0;" x1="452.5" x2="558.5" y1="461.0234" y2="461.0234"/><text fill="#000000" font-family="sans-serif" font-size="13" lengthAdjust="spacing" textLength="88" x="459.5" y="455.9575">create cluster</text><!--MD5=[a5669da47390161987022525e25a8479]
@startuml ClusterAPI-Bootstrap-Pivot

actor user
participant bootstrap
participant management
participant workload

group bootstrap
  user -> bootstrap: create temporary cluster
  user -> bootstrap: initialize temporary cluster
  user -> bootstrap: apply cluster configs
  bootstrap -> management: create cluster
end

group pivot
  user -> management: initialize cluster
  user -> bootstrap: disable cluster api
  bootstrap -> management: transfer any existing resources
  user -> bootstrap: delete temporary cluster
end

group workload
  user -> management: apply cluster configs
  management -> workload: create cluster
end

@enduml

PlantUML version 1.2022.5(Sat Apr 30 05:55:52 CDT 2022)
(GPL source distribution)
Java Runtime: OpenJDK Runtime Environment
JVM: OpenJDK 64-Bit Server VM
Default Encoding: UTF-8
Language: en
Country: null
--></g></svg>
