<?xml version="1.0" encoding="UTF-8" standalone="no"?><svg xmlns="http://www.w3.org/2000/svg" xmlns:xlink="http://www.w3.org/1999/xlink" contentStyleType="text/css" height="477px" preserveAspectRatio="none" style="width:567px;height:477px;background:#FFFFFF;" version="1.1" viewBox="0 0 567 477" width="567px" zoomAndPan="magnify"><defs/><g><rect height="191.9297" style="stroke:#000000;stroke-width:1.5;fill:none;" width="425.5" x="10" y="98.2969"/><rect height="75.3984" style="stroke:#000000;stroke-width:1.5;fill:none;" width="551.5" x="10" y="304.2266"/><line style="stroke:#181818;stroke-width:0.5;fill:none;stroke-dasharray:5.0,5.0;" x1="38" x2="38" y1="81.2969" y2="396.625"/><line style="stroke:#181818;stroke-width:0.5;fill:none;stroke-dasharray:5.0,5.0;" x1="231" x2="231" y1="81.2969" y2="396.625"/><line style="stroke:#181818;stroke-width:0.5;fill:none;stroke-dasharray:5.0,5.0;" x1="372.5" x2="372.5" y1="81.2969" y2="396.625"/><line style="stroke:#181818;stroke-width:0.5;fill:none;stroke-dasharray:5.0,5.0;" x1="513.5" x2="513.5" y1="81.2969" y2="396.625"/><text fill="#000000" font-family="sans-serif" font-size="14" lengthAdjust="spacing" textLength="31" x="20" y="77.9951">user</text><ellipse cx="38.5" cy="13.5" fill="#E2E2F0" rx="8" ry="8" style="stroke:#181818;stroke-width:0.5;"/><path d="M38.5,21.5 L38.5,48.5 M25.5,29.5 L51.5,29.5 M38.5,48.5 L25.5,63.5 M38.5,48.5 L51.5,63.5 " fill="none" style="stroke:#181818;stroke-width:0.5;"/><text fill="#000000" font-family="sans-serif" font-size="14" lengthAdjust="spacing" textLength="31" x="20" y="408.6201">user</text><ellipse cx="38.5" cy="420.4219" fill="#E2E2F0" rx="8" ry="8" style="stroke:#181818;stroke-width:0.5;"/><path d="M38.5,428.4219 L38.5,455.4219 M25.5,436.4219 L51.5,436.4219 M38.5,455.4219 L25.5,470.4219 M38.5,455.4219 L51.5,470.4219 " fill="none" style="stroke:#181818;stroke-width:0.5;"/><rect fill="#E2E2F0" height="30.2969" rx="2.5" ry="2.5" style="stroke:#181818;stroke-width:0.5;" width="81" x="191" y="50"/><text fill="#000000" font-family="sans-serif" font-size="14" lengthAdjust="spacing" textLength="67" x="198" y="69.9951">bootstrap</text><rect fill="#E2E2F0" height="30.2969" rx="2.5" ry="2.5" style="stroke:#181818;stroke-width:0.5;" width="81" x="191" y="395.625"/><text fill="#000000" font-family="sans-serif" font-size="14" lengthAdjust="spacing" textLength="67" x="198" y="415.6201">bootstrap</text><rect fill="#E2E2F0" height="30.2969" rx="2.5" ry="2.5" style="stroke:#181818;stroke-width:0.5;" width="106" x="319.5" y="50"/><text fill="#000000" font-family="sans-serif" font-size="14" lengthAdjust="spacing" textLength="92" x="326.5" y="69.9951">management</text><rect fill="#E2E2F0" height="30.2969" rx="2.5" ry="2.5" style="stroke:#181818;stroke-width:0.5;" width="106" x="319.5" y="395.625"/><text fill="#000000" font-family="sans-serif" font-size="14" lengthAdjust="spacing" textLength="92" x="326.5" y="415.6201">management</text><rect fill="#E2E2F0" height="30.2969" rx="2.5" ry="2.5" style="stroke:#181818;stroke-width:0.5;" width="76" x="475.5" y="50"/><text fill="#000000" font-family="sans-serif" font-size="14" lengthAdjust="spacing" textLength="62" x="482.5" y="69.9951">workload</text><rect fill="#E2E2F0" height="30.2969" rx="2.5" ry="2.5" style="stroke:#181818;stroke-width:0.5;" width="76" x="475.5" y="395.625"/><text fill="#000000" font-family="sans-serif" font-size="14" lengthAdjust="spacing" textLength="62" x="482.5" y="415.6201">workload</text><path d="M10,98.2969 L203,98.2969 L203,105.4297 L193,115.4297 L10,115.4297 L10,98.2969 " fill="#EEEEEE" style="stroke:#000000;stroke-width:1.5;"/><rect fill="none" height="191.9297" style="stroke:#000000;stroke-width:1.5;" width="425.5" x="10" y="98.2969"/><text fill="#000000" font-family="sans-serif" font-size="13" font-weight="bold" lengthAdjust="spacing" textLength="148" x="25" y="111.3638">bootstrap and pivot</text><polygon fill="#181818" points="219.5,132.5625,229.5,136.5625,219.5,140.5625,223.5,136.5625" style="stroke:#181818;stroke-width:1.0;"/><line style="stroke:#181818;stroke-width:1.0;" x1="38.5" x2="225.5" y1="136.5625" y2="136.5625"/><text fill="#000000" font-family="sans-serif" font-size="13" lengthAdjust="spacing" textLength="159" x="45.5" y="131.4966">create temporary cluster</text><polygon fill="#181818" points="219.5,161.6953,229.5,165.6953,219.5,169.6953,223.5,165.6953" style="stroke:#181818;stroke-width:1.0;"/><line style="stroke:#181818;stroke-width:1.0;" x1="38.5" x2="225.5" y1="165.6953" y2="165.6953"/><text fill="#000000" font-family="sans-serif" font-size="13" lengthAdjust="spacing" textLength="169" x="45.5" y="160.6294">initialize temporary cluster</text><polygon fill="#181818" points="219.5,190.8281,229.5,194.8281,219.5,198.8281,223.5,194.8281" style="stroke:#181818;stroke-width:1.0;"/><line style="stroke:#181818;stroke-width:1.0;" x1="38.5" x2="225.5" y1="194.8281" y2="194.8281"/><text fill="#000000" font-family="sans-serif" font-size="13" lengthAdjust="spacing" textLength="159" x="45.5" y="189.7622">apply new cluster configs</text><polygon fill="#181818" points="360.5,219.9609,370.5,223.9609,360.5,227.9609,364.5,223.9609" style="stroke:#181818;stroke-width:1.0;"/><line style="stroke:#181818;stroke-width:1.0;" x1="231.5" x2="366.5" y1="223.9609" y2="223.9609"/><text fill="#000000" font-family="sans-serif" font-size="13" lengthAdjust="spacing" textLength="117" x="238.5" y="218.895">create new cluster</text><polygon fill="#181818" points="360.5,249.0938,370.5,253.0938,360.5,257.0938,364.5,253.0938" style="stroke:#181818;stroke-width:1.0;"/><line style="stroke:#181818;stroke-width:1.0;" x1="38.5" x2="366.5" y1="253.0938" y2="253.0938"/><text fill="#000000" font-family="sans-serif" font-size="13" lengthAdjust="spacing" textLength="127" x="45.5" y="248.0278">initialize new cluster</text><polygon fill="#181818" points="219.5,278.2266,229.5,282.2266,219.5,286.2266,223.5,282.2266" style="stroke:#181818;stroke-width:1.0;"/><line style="stroke:#181818;stroke-width:1.0;" x1="38.5" x2="225.5" y1="282.2266" y2="282.2266"/><text fill="#000000" font-family="sans-serif" font-size="13" lengthAdjust="spacing" textLength="153" x="45.5" y="277.1606">delete bootstrap cluster</text><path d="M10,304.2266 L123,304.2266 L123,311.3594 L113,321.3594 L10,321.3594 L10,304.2266 " fill="#EEEEEE" style="stroke:#000000;stroke-width:1.5;"/><rect fill="none" height="75.3984" style="stroke:#000000;stroke-width:1.5;" width="551.5" x="10" y="304.2266"/><text fill="#000000" font-family="sans-serif" font-size="13" font-weight="bold" lengthAdjust="spacing" textLength="68" x="25" y="317.2935">workload</text><polygon fill="#181818" points="360.5,338.4922,370.5,342.4922,360.5,346.4922,364.5,342.4922" style="stroke:#181818;stroke-width:1.0;"/><line style="stroke:#181818;stroke-width:1.0;" x1="38.5" x2="366.5" y1="342.4922" y2="342.4922"/><text fill="#000000" font-family="sans-serif" font-size="13" lengthAdjust="spacing" textLength="159" x="45.5" y="337.4263">apply new cluster configs</text><polygon fill="#181818" points="501.5,367.625,511.5,371.625,501.5,375.625,505.5,371.625" style="stroke:#181818;stroke-width:1.0;"/><line style="stroke:#181818;stroke-width:1.0;" x1="372.5" x2="507.5" y1="371.625" y2="371.625"/><text fill="#000000" font-family="sans-serif" font-size="13" lengthAdjust="spacing" textLength="117" x="379.5" y="366.5591">create new cluster</text><!--MD5=[264f30f19b67cf8f7025f6a8f6773ecb]
@startuml ClusterAPI-Bootstrap-Pivot

actor user
participant bootstrap
participant management
participant workload

group bootstrap and pivot
  user -> bootstrap: create temporary cluster
  user -> bootstrap: initialize temporary cluster
  user -> bootstrap: apply new cluster configs
  bootstrap -> management: create new cluster
  user -> management: initialize new cluster
  user -> bootstrap: delete bootstrap cluster
end

group workload
  user -> management: apply new cluster configs
  management -> workload: create new cluster
end

@enduml

PlantUML version 1.2022.5(Sat Apr 30 05:55:52 CDT 2022)
(GPL source distribution)
Java Runtime: OpenJDK Runtime Environment
JVM: OpenJDK 64-Bit Server VM
Default Encoding: UTF-8
Language: en
Country: null
--></g></svg>
